<svg width="1000" height="977" xmlns="http://www.w3.org/2000/svg">
 <g>
  <title>Layer 1</title>
  <path id="svg_1" fill="url(#svg_4)" d="m931.06,865.50327a567.83,567.83 0 0 0 68.94,-97.36l-116.67,-58.08a357.2,357.2 0 0 1 -61.16,76.63c-32.53,30.2 -67.13,47.79 -102.36,52.29c-68,8.69 -115.55,-12.33 -184.87,-56.81c-72.84,-46.73 -155.38,-99.7 -272.53,-84.73c-71,9.11 -136.22,46.31 -193.54,110.58a567.5,567.5 0 0 0 -68.87,97.35l116.64,58.08a359.92,359.92 0 0 1 61,-76.69c32.18,-29.78 66.6,-47.32 102.39,-51.78a235.14,235.14 0 0 1 29.57,-2c53.65,0 96.74,20.7 155.32,58.29c68,43.68 152.78,98 272.59,82.81c72.4,-9.35 137.52,-45.87 193.51,-108.63l0.04,0.05zm0,-347.44a567.82,567.82 0 0 0 68.94,-97.36l-116.67,-58.08a357.85,357.85 0 0 1 -61.16,76.66c-32.53,30.19 -67.17,47.79 -102.36,52.28c-68,8.67 -115.55,-12.33 -184.87,-56.81c-72.84,-46.73 -155.38,-99.7 -272.53,-84.73c-71,9.11 -136.22,46.28 -193.54,110.58a566.35,566.35 0 0 0 -68.87,97.33l116.64,58.08a360.81,360.81 0 0 1 61,-76.72c32.3,-29.75 66.6,-47.17 102.39,-51.75a235.15,235.15 0 0 1 29.57,-2c53.65,0 96.74,20.7 155.32,58.29c68,43.68 152.78,98 272.59,82.81c72.49,-9.27 137.57,-45.82 193.55,-108.58zm0,-347.44a567.82,567.82 0 0 0 68.94,-97.36l-116.67,-58.08a357.85,357.85 0 0 1 -61.16,76.66c-32.53,30.2 -67.13,47.79 -102.36,52.29c-68,8.67 -115.55,-12.33 -184.87,-56.81c-72.75,-46.74 -155.29,-99.71 -272.44,-84.74c-71.09,9.25 -136.22,46.28 -193.5,110.58a566.35,566.35 0 0 0 -69,97.33l116.64,58.08a360.8,360.8 0 0 1 61,-76.72c32.3,-29.75 66.6,-47.17 102.39,-51.76a235.15,235.15 0 0 1 29.57,-2c53.65,0 96.74,20.7 155.32,58.29c68,43.68 152.72,98 272.59,82.81c72.49,-9.29 137.57,-45.82 193.55,-108.57z"/>
 </g>
 <defs>
  <linearGradient id="svg_4" x1="0" y1="0" x2="1" y2="0">
   <stop stop-color="#0081f9" stop-opacity="0.98828" offset="0"/>
   <stop stop-color="#0064e0" stop-opacity="0.98828" offset="1"/>
  </linearGradient>
 </defs>
</svg>